# xmcd CD database file
#
# Track frame offsets:
#	150
#	15530
#	32955
#	48855
#
# Disc length: 852 seconds
#
# Revision: 0
# Processed by: cddbd v1.5PL3 Copyright (c) Steve Scherf et al.
# Submitted via: CDex 1.50
#
DISCID=27035204
DTITLE=dicot - ア★イ★ツ
DYEAR=2001
DGENRE=JPop
TTITLE0=ア★イ★ツ
TTITLE1=えら呼吸
TTITLE2=春黄色の中で…
TTITLE3=ア★イ★ツ(カラオケ)
EXTD=YEAR: 2001
EXTT0=
EXTT1=
EXTT2=
EXTT3=
PLAYORDER=
